<?xml version="1.0" encoding="UTF-8"?><svg id="Layer_1" xmlns="http://www.w3.org/2000/svg" viewBox="0 0 800 800"><defs><style>.cls-1{stroke-width:16.5px;}.cls-1,.cls-2{fill:none;stroke:#e7e7e7;stroke-miterlimit:10;}.cls-2{stroke-width:22px;}</style></defs><path class="cls-2" d="M774.75,375.29v-56.86h-28.9c-4.48-42.59-21.16-81.54-46.47-113.31l23.08-23.08-40.2-40.2-23.75,23.75c-29.3-21.78-64.23-36.42-102.2-41.33v-30.26h-56.86v30.26c-41.98,5.44-80.23,22.75-111.28,48.46l-20.4-20.4-40.2,40.2,21.83,21.83c-21.4,29.96-35.44,65.53-39.5,104.08h-30.4v56.86h31.75c5.54,35.95,19.82,69.01,40.59,96.96l-19.79,19.79,40.2,40.2,19.12-19.12c30.46,24.27,67.52,40.61,108.07,45.86v30.26h56.86v-30.26c36.54-4.73,70.25-18.46,98.84-38.89l22.62,22.62,40.2-40.2-21.18-21.18c24.64-29.75,41.56-66.12,47.72-106.04h30.25Zm-246.88,98.75c-73.13,0-132.42-59.29-132.42-132.42s59.29-132.42,132.42-132.42,132.42,59.29,132.42,132.42-59.29,132.42-132.42,132.42Z"/><path class="cls-1" d="M305.18,585.06v-32.14h-16.34c-2.53-24.07-11.96-46.09-26.27-64.04l13.04-13.04-22.72-22.72-13.42,13.42c-16.56-12.31-36.3-20.58-57.77-23.36v-17.1h-32.14v17.1c-23.73,3.07-45.35,12.86-62.9,27.39l-11.53-11.53-22.72,22.72,12.34,12.34c-12.1,16.93-20.03,37.04-22.32,58.83H25.25v32.14h17.95c3.13,20.32,11.2,39.01,22.94,54.81l-11.19,11.19,22.72,22.72,10.81-10.81c17.22,13.72,38.17,22.95,61.08,25.92v17.1h32.14v-17.1c20.65-2.67,39.7-10.43,55.87-21.98l12.78,12.78,22.72-22.72-11.97-11.97c13.93-16.82,23.49-37.37,26.97-59.94h17.1Zm-139.54,55.82c-41.34,0-74.84-33.51-74.84-74.84s33.51-74.84,74.84-74.84,74.84,33.51,74.84,74.84-33.51,74.84-74.84,74.84Z"/></svg>